
<svg xmlns="http://www.w3.org/2000/svg" style="display: none;"><symbol id="logo-Fundraising-Regulator" viewBox="0 0 129 69"><g class="nc-icon-wrapper" stroke="none" fill="currentColor"><path fill-rule="evenodd" d="M19.759 16c10.9 0 19.736 8.73 19.758 19.5 0 10.77-8.858 19.5-19.759 19.5C8.838 55 0 46.27 0 35.5S8.858 16 19.759 16zm0 3.208c-9.117 0-16.512 7.307-16.512 16.292 0 8.985 7.396 16.292 16.512 16.292S36.27 44.485 36.27 35.5c0-8.985-7.417-16.292-16.512-16.292zm94.535 16.696c2.989 0 5.139 2.188 5.139 4.906v.022c0 2.719-2.172 4.949-5.16 4.949-2.989 0-5.139-2.188-5.139-4.907v-.021c0-2.719 2.171-4.95 5.16-4.95zm-37.216.17v5.416c0 1.55.795 2.358 2.085 2.358s2.086-.786 2.086-2.294v-5.48h2.128v5.395c0 2.889-1.655 4.312-4.257 4.312-2.58 0-4.171-1.444-4.171-4.248v-5.46h2.129zm-7.461-.17c1.742 0 2.795.467 3.805 1.317l-1.332 1.593c-.753-.616-1.42-.977-2.538-.977-1.548 0-2.773 1.36-2.773 2.973v.022c0 1.742 1.225 3.037 2.924 3.037.774 0 1.462-.19 2-.573v-1.36h-2.15v-1.805h4.213v4.142a6.331 6.331 0 0 1-4.128 1.508c-3.031 0-5.095-2.082-5.095-4.907v-.021c0-2.719 2.15-4.95 5.074-4.95zm55.448.17c1.226 0 2.194.34 2.817.977.537.53.838 1.274.838 2.188v.02c0 1.551-.838 2.507-2.085 2.953l2.365 3.42h-2.494l-2.085-3.058h-1.678v3.058h-2.128l.022-9.558h4.428zm-16.017 0v1.933h-2.945v7.625h-2.129v-7.625h-2.946v-1.933h8.02zm-11.03-.064l4.15 9.622h-2.236l-.882-2.145h-4.084l-.882 2.145h-2.172l4.15-9.622h1.957zm-11.029.064v7.647h4.837v1.911h-6.965v-9.558h2.128zm-35.475 0c1.225 0 2.193.34 2.816.977.538.53.839 1.274.839 2.188v.02c0 1.551-.838 2.507-2.064 2.953l2.365 3.42h-2.494l-2.085-3.058h-1.677v3.058h-2.129v-9.558h4.429zm12.19 0v1.869h-5.181v1.933h4.558v1.87h-4.558v1.996h5.246v1.87h-7.374v-9.538h7.31zm50.59 1.784c-1.72 0-2.903 1.338-2.903 2.974v.02c0 1.637 1.226 2.996 2.924 2.996 1.699 0 2.903-1.338 2.903-2.974v-.021c0-1.636-1.225-2.995-2.924-2.995zm-94.987-8.9v3.356h-7.331v2.358h6.621v3.186h-6.622v4.95H8.085v-13.85h11.223zm7.418 0c2.15 0 3.633.552 4.557 1.486.817.808 1.247 1.848 1.247 3.23v.042c0 2.145-1.139 3.547-2.88 4.27l3.353 4.821H28.53l-2.838-4.206h-1.72v4.185h-3.891V28.958h6.643zm70.283 9.558l-1.29 3.102h2.58l-1.29-3.102zm27.864-.552h-2.107v2.74h2.15c1.032 0 1.634-.552 1.634-1.36v-.02c0-.893-.645-1.36-1.677-1.36zm-73.53 0h-2.107v2.74h2.15c1.032 0 1.634-.552 1.634-1.36v-.02c0-.893-.645-1.36-1.677-1.36zm-24.811-5.693h-2.558v3.335h2.58c1.311 0 2.085-.637 2.085-1.635v-.043c0-1.104-.817-1.657-2.107-1.657zm77.873-6.967c1.269 0 2.086.34 2.967 1.04l-.408.51c-.817-.7-1.634-.955-2.58-.955-1.269 0-2.108.722-2.108 1.614v.021c0 .892.474 1.445 2.516 1.87 2 .403 2.838 1.104 2.838 2.357v.022c0 1.38-1.204 2.336-2.86 2.336-1.397-.063-2.45-.51-3.504-1.423l.43-.467c.946.87 1.828 1.274 3.096 1.274 1.29 0 2.193-.722 2.193-1.7v-.02c0-.892-.473-1.424-2.451-1.806-2.064-.403-2.903-1.104-2.903-2.4v-.021c0-1.275 1.183-2.252 2.774-2.252zm-49.213.085v4.928c0 2.018 1.096 3.165 2.923 3.165 1.764 0 2.882-1.04 2.882-3.101v-4.992h.645v4.928c0 2.443-1.441 3.76-3.548 3.76-2.064-.021-3.548-1.296-3.548-3.696v-4.992h.645zm69.703-.149c1.397 0 2.3.404 3.16 1.126l-.43.467c-.688-.594-1.462-1.02-2.773-1.02-2.108 0-3.57 1.764-3.57 3.824v.021c0 2.21 1.398 3.845 3.698 3.845 1.097 0 2.129-.446 2.752-.977v-2.443h-2.88v-.594h3.504v3.292a5.22 5.22 0 0 1-3.397 1.275c-2.709.02-4.343-1.976-4.343-4.376v-.022c0-2.294 1.699-4.418 4.279-4.418zm-39.647.17c1.054 0 1.914.319 2.43.85.408.403.645.977.645 1.593v.021c0 1.423-1.075 2.252-2.537 2.443l2.86 3.632h-.817l-2.752-3.526h-2.817v3.505h-.645V25.41h3.633zm-9.782 0c2.709 0 4.58 1.848 4.58 4.248v.022c0 2.4-1.871 4.27-4.58 4.27h-2.881v-8.54h2.881zm18.361-.064l4.02 8.582h-.709L96.04 31.55h-5.095l-1.096 2.38h-.667l4.02-8.583h.624zm5.977.064v8.518h-.645V25.41h.645zm10.04 0v8.518h-.645V25.41h.646zm2.623 0l5.956 7.414V25.41h.624v8.518h-.474l-6.084-7.583v7.583h-.623V25.41h.602zm-48.417 0l5.955 7.414V25.41h.623v8.518h-.472l-6.085-7.583v7.583h-.623V25.41h.602zm-10.75 0v.595h-5.44v3.505h4.88v.595h-4.88v3.823h-.645V25.41h6.084zm22.166.574h-2.236v7.35h2.236c2.408 0 3.913-1.615 3.913-3.654v-.022c0-2.017-1.526-3.674-3.913-3.674zm18.038.063l-2.278 4.928h4.558l-2.28-4.928zm-8.277-.063h-2.945v3.844h2.902c1.44 0 2.515-.722 2.515-1.954v-.021c0-1.147-.902-1.87-2.472-1.87z"/></g></symbol><symbol id="logo-Trustpilot" viewBox="0 0 129 69"><g class="nc-icon-wrapper" stroke="none" fill="currentColor"><path fill-rule="evenodd" d="M92.714 32.032c.922 0 1.719.156 2.402.48a4.683 4.683 0 0 1 1.708 1.303c.455.557.786 1.203 1.013 1.939.228.735.342 1.526.342 2.362 0 .769-.103 1.516-.308 2.229a5.91 5.91 0 0 1-.922 1.916c-.41.557-.933.992-1.571 1.326-.638.335-1.378.502-2.243.502-.376 0-.751-.034-1.127-.1a5.042 5.042 0 0 1-1.082-.324 3.922 3.922 0 0 1-.956-.568 3.558 3.558 0 0 1-.74-.802h-.046V48h-2.573V32.344h2.437v1.549h.045c.364-.669.865-1.137 1.514-1.426a5.082 5.082 0 0 1 2.107-.435zm-70.535 5.226l2.824 8.491-9.553-6.786 6.73-1.705zM15.45 17l3.644 10.987h11.795l-9.54 6.786-5.899 4.19-9.54 6.786 3.643-10.987L0 27.976l11.807.011L15.45 17zm56.565 15.032c.603 0 1.184.067 1.73.19a4.514 4.514 0 0 1 1.492.612c.444.279.808.647 1.104 1.092.296.446.478.992.558 1.627h-2.687c-.125-.602-.398-1.014-.843-1.214-.444-.212-.956-.312-1.525-.312-.182 0-.399.01-.65.044-.25.034-.477.09-.705.167-.216.078-.399.2-.558.357a.851.851 0 0 0-.228.613c0 .312.114.557.33.746.217.19.501.346.854.48.353.122.752.234 1.207.323.456.089.923.19 1.4.29.468.1.923.233 1.378.378.456.145.854.346 1.207.602.353.256.638.568.854.947.217.379.33.858.33 1.415 0 .68-.159 1.248-.478 1.727a3.751 3.751 0 0 1-1.23 1.148c-.5.29-1.07.513-1.685.646-.614.134-1.23.201-1.833.201-.74 0-1.423-.078-2.05-.245-.625-.167-1.172-.412-1.627-.736a3.67 3.67 0 0 1-1.082-1.236c-.262-.49-.398-1.081-.421-1.761h2.596v-.022c.08.735.364 1.248.854 1.549.5.29 1.093.445 1.787.445.24 0 .513-.022.82-.055.307-.034.603-.112.865-.212.274-.1.49-.256.672-.457.17-.2.25-.457.24-.78a1.067 1.067 0 0 0-.365-.791c-.228-.212-.512-.368-.865-.502a8.835 8.835 0 0 0-1.207-.323c-.456-.089-.911-.19-1.378-.29a13.3 13.3 0 0 1-1.39-.378 4.275 4.275 0 0 1-1.195-.602 2.663 2.663 0 0 1-.842-.958c-.216-.39-.319-.87-.319-1.449 0-.624.16-1.137.467-1.56a3.516 3.516 0 0 1 1.173-1.014 5.513 5.513 0 0 1 1.582-.546c.58-.1 1.139-.156 1.663-.156zm-14.631.312v7.009c0 1.003.193 1.716.592 2.128.387.413.945.624 1.65.624.547 0 .991-.078 1.356-.245.364-.167.66-.379.877-.657.227-.268.387-.602.49-.98.102-.38.147-.792.147-1.238v-6.63h2.573v11.422h-2.527v-1.594h-.046c-.319.58-.785 1.037-1.412 1.382-.626.345-1.264.524-1.913.524-1.537 0-2.652-.368-3.336-1.115-.683-.746-1.024-1.872-1.024-3.376v-7.254h2.573zm58.101-.312c.934 0 1.765.156 2.494.457a5.51 5.51 0 0 1 1.856 1.248c.5.535.888 1.17 1.15 1.905.261.736.398 1.538.398 2.407 0 .88-.137 1.694-.399 2.43a5.411 5.411 0 0 1-1.15 1.905c-.5.535-1.127.947-1.855 1.248-.729.3-1.56.457-2.494.457-.933 0-1.765-.156-2.493-.457a5.51 5.51 0 0 1-1.856-1.248 5.411 5.411 0 0 1-1.15-1.906 7.212 7.212 0 0 1-.399-2.429c0-.869.137-1.671.399-2.407a5.411 5.411 0 0 1 1.15-1.905c.5-.535 1.127-.947 1.856-1.248.728-.301 1.56-.457 2.493-.457zm-33.018-3.12v3.432h2.322v1.883h-2.322v6.107c0 .267.011.49.034.69.023.19.08.357.16.49.079.134.204.235.375.302.17.066.387.1.683.1.182 0 .364 0 .547-.011.182-.011.364-.034.546-.078v1.95c-.285.033-.57.055-.831.089a6.8 6.8 0 0 1-.831.044c-.683 0-1.23-.066-1.64-.189-.41-.123-.74-.312-.968-.557-.239-.245-.387-.546-.478-.914a6.73 6.73 0 0 1-.148-1.259v-6.742H77.97v-1.905h1.924v-3.432h2.574zm44.188 0v3.432h2.322v1.883h-2.322v6.107c0 .267.01.49.034.69.022.19.08.357.16.49.079.134.204.235.375.302.17.066.387.1.683.1.182 0 .364 0 .546-.011.183-.011.365-.034.547-.078v1.95c-.285.033-.57.055-.831.089a6.8 6.8 0 0 1-.831.044c-.683 0-1.23-.066-1.64-.189-.41-.123-.74-.312-.968-.557-.239-.245-.387-.546-.478-.914a6.73 6.73 0 0 1-.148-1.259v-6.742h-1.947v-1.905h1.924v-3.432h2.574zm-79.7-.925v2.385H41.82v13.405h-2.824V30.372h-5.112v-2.385h13.07zm55.767 4.357v11.433h-2.573V32.344h2.573zm4.873-4.357v15.79h-2.573v-15.79h2.573zM52.26 32.032c.296 0 .513.011.627.022.113.011.227.034.353.045v2.429a8.388 8.388 0 0 0-.558-.078 4.83 4.83 0 0 0-.558-.033c-.433 0-.843.089-1.23.256a2.828 2.828 0 0 0-1.002.746 3.768 3.768 0 0 0-.683 1.226c-.17.49-.25 1.048-.25 1.683v5.438h-2.574V32.344h2.426v2.206h.045a2.57 2.57 0 0 1 .444-.902c.216-.29.478-.569.786-.803a4.208 4.208 0 0 1 1.024-.59 3.194 3.194 0 0 1 1.15-.223zm40.112 1.995c-1.081 0-1.901.367-2.448 1.103-.546.735-.82 1.716-.82 2.942 0 .579.069 1.114.217 1.604s.353.914.649 1.27c.284.357.626.636 1.025.836.398.212.865.312 1.389.312.592 0 1.081-.122 1.491-.356.41-.234.74-.546 1.002-.914.262-.379.455-.802.57-1.282.102-.479.159-.969.159-1.47 0-.513-.069-1.014-.205-1.505a4.018 4.018 0 0 0-.615-1.292 3.11 3.11 0 0 0-1.013-.903 2.89 2.89 0 0 0-1.4-.345zm23.113 0c-.57 0-1.07.122-1.491.356a3.246 3.246 0 0 0-1.036.914 3.998 3.998 0 0 0-.604 1.293c-.125.49-.193.969-.193 1.46 0 .5.068.991.193 1.47.125.48.33.914.604 1.293.273.379.614.69 1.036.925.42.245.922.356 1.491.356.57 0 1.07-.122 1.492-.356a3.15 3.15 0 0 0 1.036-.925 4.11 4.11 0 0 0 .603-1.293c.125-.479.194-.97.194-1.47 0-.491-.069-.97-.194-1.46a3.775 3.775 0 0 0-.603-1.293 3.118 3.118 0 0 0-1.036-.914c-.422-.234-.923-.356-1.492-.356zm-12.763-6.04v2.385h-2.573v-2.385h2.573z"/></g></symbol><symbol id="logo-GFM-Guarantee" viewBox="0 0 129 69"><g class="nc-icon-wrapper" stroke="none" fill="currentColor"><path fill-rule="evenodd" d="M7.294 31.935l.008.009a3.18 3.18 0 0 1 .93 2.183 3.12 3.12 0 0 1 2.414.91l.023.023c.7.7 1.005 1.649.916 2.565.748.042 1.485.35 2.059.925l.008.008c.65.652.96 1.516.928 2.371a2.82 2.82 0 0 1 1.878.83l.006.007a2.866 2.866 0 0 1 .02 4.025l-.032.031-.476.478c-1.11 1.111-2.903 1.111-3.994.017l-.026-.025a2.851 2.851 0 0 1-.828-1.83 3.152 3.152 0 0 1-2.42-.924l-.008-.009a3.182 3.182 0 0 1-.93-2.307 3.14 3.14 0 0 1-2.299-.927l-.008-.008a3.184 3.184 0 0 1-.926-2.436 3.145 3.145 0 0 1-2.179-.928l-.008-.008a3.195 3.195 0 0 1-.007-4.502l.007-.007.471-.472a3.154 3.154 0 0 1 4.473.001zm6.403 11.087l-.489.49-.002.002c-.416.42-.414 1.098-.016 1.498l.026.025a1.064 1.064 0 0 0 1.508 0l.457-.458.036-.036a1.075 1.075 0 0 0-.005-1.515l-.007-.006a1.064 1.064 0 0 0-1.508 0zm36.664-9.171v6.472c0 .788.263 1.267.495 1.53.293.355.835.71 1.638.71.804 0 1.345-.355 1.64-.71.231-.263.494-.742.494-1.53v-6.472h2.01v6.302c0 .974-.155 1.962-.773 2.75-.742.974-2.041 1.483-3.37 1.483-1.33 0-2.629-.51-3.37-1.483-.62-.788-.774-1.776-.774-2.75v-6.302h2.01zm-9.374-.232c.773 0 1.593.123 2.381.54.665.34 1.391.958 1.933 1.885l-1.747.943a2.81 2.81 0 0 0-1.206-1.22 3.383 3.383 0 0 0-1.453-.325c-.82 0-1.747.293-2.381.911-.588.572-1.036 1.56-1.036 2.72 0 1.374.587 2.193 1.02 2.61.464.448 1.19.88 2.288.88.68 0 1.454-.185 2.026-.618.401-.308.803-.834.973-1.575h-2.659v-1.73h4.731v.123c0 .695-.093 2.858-1.515 4.264-1.067 1.066-2.38 1.36-3.664 1.36-1.283 0-2.613-.263-3.741-1.391-.356-.355-1.53-1.653-1.53-3.97 0-1.993.896-3.214 1.514-3.831.773-.788 2.072-1.576 4.066-1.576zm71.281.232v1.73h-2.319v8.574h-2.01V35.58h-2.319v-1.73h6.648zm16.732 0v1.73h-3.71v2.302h3.555v1.73h-3.555v2.811H129v1.73h-5.72V33.852H129zm-8.214 0v1.73h-3.71v2.302h3.555v1.73h-3.556v2.811h3.71v1.73h-5.72V33.852h5.72zm-26.305 0l6.276 6.874v-6.874h2.01v10.304h-1.391l-6.277-6.89v6.89h-2.01V33.85h1.392zm-30.039 0l4.314 10.304H66.59l-.912-2.163h-4.158l-.913 2.163h-2.18l4.438-10.304h1.576zm9.792 0c1.422 0 2.148.37 2.628.772.788.664 1.02 1.545 1.02 2.317 0 1.004-.402 1.885-1.206 2.426-.263.185-.634.355-1.128.448l3.215 4.34H76.26l-2.752-4.14h-.247v4.14h-2.01V33.852h2.984zm12.048 0l4.313 10.304h-2.164l-.912-2.163h-4.16l-.911 2.163h-2.18l4.437-10.304h1.577zM19.43 19.399c5.58 0 10.104 4.55 10.104 10.162a.89.89 0 0 1-.886.891.89.89 0 0 1-.887-.891c0-4.628-3.73-8.38-8.331-8.38h-.73c-1.126 0-2.215.41-3.065 1.152l-5.633 4.922a1.176 1.176 0 0 0 1.557 1.753l6.381-4.797a.883.883 0 0 1 1.157.083l8.558 8.576a3.194 3.194 0 0 1 0 4.507 3.16 3.16 0 0 1-2.042.925c.054.923-.28 1.913-.942 2.576a3.169 3.169 0 0 1-3.071.822 3.177 3.177 0 0 1-.883 1.703.883.883 0 0 1-1.254-.001.895.895 0 0 1 .001-1.261 1.405 1.405 0 0 0 .016-1.967l-2.123-2.127c-.837-.84.415-2.103 1.252-1.263l2.108 2.112.023.023.694.695a1.404 1.404 0 0 0 1.986.001c.385-.386.523-1.103.36-1.545l-.044-.093-.036-.042a33.443 33.443 0 0 0-.535-.558l-2.544-2.549c-.835-.837.409-2.099 1.248-1.266 1.213 1.203 2.04 2.029 2.573 2.577a1.404 1.404 0 0 0 1.961-2.006L18.388 26.1l-4.77 3.586-.998.75a2.943 2.943 0 0 1-3.084.278 2.966 2.966 0 0 1-.768-4.741l.045-.042 5.66-4.945A6.426 6.426 0 0 1 18.7 19.4h.729zm-8.97 20.377l-.517.52-.015.014-.075.084c-.445.55-.411 1.36.1 1.873l.008.008a1.389 1.389 0 0 0 1.968 0l.456-.457.018-.018a1.405 1.405 0 0 0-.004-1.98l-.008-.008a1.388 1.388 0 0 0-1.931-.036zm53.163-3.13l-1.469 3.708h2.938l-1.469-3.707zm21.84 0l-1.47 3.708h2.938l-1.469-3.707zM7.44 36.315l-.726.728-.003.003a1.405 1.405 0 0 0 .004 1.98l.008.008c.54.54 1.407.545 1.952.016l.009-.011.487-.489.042-.04.203-.202-.01.009.015-.015a1.4 1.4 0 0 0 .011-1.964l-.024-.023a1.388 1.388 0 0 0-1.968 0zm66.473-.826h-.653v3.105h.572c.386 0 1.978-.046 1.978-1.56 0-1.468-1.453-1.541-1.897-1.545zm-69.84-2.29l-.471.472-.004.003a1.405 1.405 0 0 0 .005 1.98l.008.008a1.389 1.389 0 0 0 1.968 0l.456-.457.018-.019a1.405 1.405 0 0 0-.004-1.98l-.008-.008a1.388 1.388 0 0 0-1.968 0zm34.21-8.018c.155.068.285.169.404.285.023.023.042.049.063.073l.022-.013c0-.105.003-.21-.001-.315-.002-.053.011-.073.071-.073.447.003.894.002 1.341 0 .05 0 .066.013.066.063-.001 1.277.002 2.553-.005 3.83-.002.295-.037.59-.181.862-.213.401-.546.68-.962.868-.324.148-.67.21-1.027.231-.442.027-.878-.005-1.298-.147-.53-.18-.948-.497-1.214-.986a1.016 1.016 0 0 1-.096-.287c-.01-.052-.002-.068.058-.068.371.003.743.002 1.114.002h.423c.03 0 .055 0 .069.036.09.232.28.336.518.365.234.029.465.01.678-.104a.798.798 0 0 0 .434-.669c.016-.175.013-.35.01-.54-.072.058-.132.108-.193.156a1.68 1.68 0 0 1-.912.348c-.487.042-.943-.04-1.36-.293-.5-.306-.781-.753-.867-1.317-.073-.471-.025-.932.206-1.358.33-.609.85-.977 1.558-1.079a1.949 1.949 0 0 1 1.081.13zm-28.045-5.781c.316 0 .632.02.946.06a.89.89 0 0 1 .766.998.888.888 0 0 1-.992.771 5.623 5.623 0 0 0-.72-.046h-.126c-4.601 0-8.331 3.751-8.331 8.379a.89.89 0 0 1-.887.891.89.89 0 0 1-.886-.891c0-5.613 4.524-10.162 10.104-10.162h.126zm43.524 5.736c.444.003.889.003 1.333 0 .06 0 .078.013.078.073l-.002.64v.64c0 .409.009.819-.003 1.229-.014.529-.257.934-.741 1.193-.293.157-.61.232-.94.27-.257.03-.514.035-.77.024-.47-.02-.93-.096-1.338-.346a1.316 1.316 0 0 1-.656-1.027 2.955 2.955 0 0 1-.012-.317l-.001-2.296c0-.063.013-.084.082-.083.445.003.889.003 1.334 0 .065 0 .085.015.085.081-.003.719-.001 1.437-.002 2.155 0 .116.013.23.06.337.087.192.248.294.45.335.181.037.366.035.544-.026a.572.572 0 0 0 .406-.502c.015-.108.014-.216.014-.324 0-.66.001-1.319-.001-1.978 0-.063.016-.078.08-.078zm25.089-.001c.735.202 1.171.694 1.371 1.397.071.25.081.505.078.762 0 .043-.02.05-.045.051h-2.963c-.084 0-.091.008-.08.09.01.079.016.159.038.236.068.246.22.416.474.492.22.066.442.079.666.014a.741.741 0 0 0 .389-.27c.029-.038.057-.056.108-.056.427.002.854.003 1.282 0 .07 0 .074.02.054.078-.225.646-.702 1.018-1.37 1.18a3.022 3.022 0 0 1-.664.074c-.388.007-.77-.027-1.135-.16-.716-.264-1.169-.753-1.305-1.49-.104-.562-.028-1.102.292-1.593.246-.376.591-.636 1.026-.772a3.122 3.122 0 0 1 1.784-.033zm-35.277-.14c.534-.001.98.068 1.388.283.57.298.97.735 1.113 1.358.219.952-.255 1.871-1.168 2.29a2.885 2.885 0 0 1-1.024.243 3.54 3.54 0 0 1-1.125-.09c-.675-.173-1.193-.546-1.479-1.172-.318-.696-.238-1.545.356-2.162.37-.386.827-.604 1.356-.695a3.55 3.55 0 0 1 .583-.055zm21.281-2.272c.445.003.889.002 1.333 0 .056 0 .075.013.075.07-.002 2.058-.002 4.116 0 6.174 0 .053-.011.072-.072.072a125.55 125.55 0 0 0-1.355 0c-.059 0-.076-.018-.074-.073.004-.108.001-.216.001-.324-.091.086-.18.169-.279.239-.226.16-.483.24-.76.27a2.062 2.062 0 0 1-1.214-.218c-.6-.317-.99-.794-1.097-1.458-.088-.545-.023-1.071.3-1.54a2.055 2.055 0 0 1 1.456-.897c.458-.066.89.005 1.29.238.106.062.196.145.294.226.018-.028.01-.056.01-.082 0-.869.001-1.738-.001-2.607 0-.071.02-.09.093-.09zm-5.196 2.441c.477.182.756.522.847 1.01.025.133.03.266.03.4-.001.796-.002 1.592 0 2.388 0 .063-.017.078-.08.077a89 89 0 0 0-1.326 0c-.074.001-.086-.022-.086-.087.003-.654.004-1.309 0-1.963 0-.136-.012-.272-.042-.405a.523.523 0 0 0-.43-.42c-.301-.066-.572-.002-.784.231-.103.112-.137.25-.155.395-.021.167-.012.334-.012.5a267.05 267.05 0 0 0 0 1.674c0 .059-.014.075-.076.075-.446-.003-.893-.003-1.34 0-.062 0-.075-.018-.075-.075.002-1.25.002-2.5 0-3.75 0-.064.018-.078.08-.078.445.003.89.003 1.334 0 .058 0 .08.012.078.073-.005.131-.002.263-.002.413.112-.127.223-.228.348-.314a1.49 1.49 0 0 1 .718-.243c.332-.032.659-.02.973.1zm-9.629-2.332c.062.024.082.054.082.119l-.003.512.001.512c0 .098 0 .099-.088.056a.987.987 0 0 0-.496-.112.436.436 0 0 0-.434.41c-.024.248-.012.498-.018.747-.001.05.017.063.067.062l.896-.002c.055 0 .075.013.074.07-.002.332-.002.664 0 .996 0 .06-.015.082-.08.081-.287-.003-.574-.002-.86-.001-.09 0-.096-.008-.096.052v2.608c0 .08 0 .093-.057.095h-.042c-.441 0-.883 0-1.325.002-.057 0-.074-.014-.074-.07l.002-.658v-.656c0-.434-.002-.867 0-1.3.001-.058-.014-.077-.075-.075-.131.005-.263 0-.394.002-.044.001-.058-.013-.058-.056.002-.344.002-.688 0-1.031 0-.049.017-.06.063-.058.129.002.258-.004.386.002.068.003.08-.02.079-.08a9.369 9.369 0 0 1 0-.515c.01-.358.073-.707.282-1.011.277-.405.667-.661 1.157-.769.343-.075.68-.06 1.011.068zm24.44 2.608c.185.161.288.369.332.606.029.157.04.317.04.476l.003 2.43c0 .07-.02.086-.09.085-.439-.003-.879-.003-1.318 0-.064 0-.081-.015-.081-.078.002-.638.002-1.276 0-1.914 0-.153-.012-.305-.049-.455-.127-.523-.739-.526-1.012-.278-.167.152-.223.346-.248.556-.021.178-.013.357-.013.536v1.56c0 .054-.012.073-.071.073-.447-.003-.894-.003-1.34 0-.063 0-.077-.019-.076-.076v-1.935c0-.132-.004-.264-.03-.394a.548.548 0 0 0-.443-.451.667.667 0 0 0-.725.265c-.091.139-.11.297-.112.454-.005.683-.005 1.366-.003 2.049 0 .073-.02.089-.093.088-.44-.003-.879-.003-1.319 0-.061 0-.076-.017-.076-.075.002-1.25.002-2.5 0-3.751 0-.061.02-.073.079-.073.444.003.889.003 1.333 0 .063 0 .077.02.075.076-.004.13 0 .259 0 .405.124-.105.236-.2.364-.277.367-.22.768-.288 1.193-.252.2.016.392.06.575.139.262.112.458.297.617.522.026.038.04.045.07.002.272-.394.661-.61 1.14-.667.473-.057.913.033 1.279.354zm-30.855.741c-.073 0-.145.003-.217.017-.546.103-.96.711-.662 1.282.202.386.62.577 1.083.497a.915.915 0 0 0 .746-1.098c-.082-.355-.472-.715-.95-.698zm-5.721-.022a.931.931 0 0 0-.947.911c-.003.47.416.915.943.907.507.012.953-.39.953-.902 0-.498-.4-.916-.95-.916zm25.465.192c-.367.23-.47.556-.414.89.069.41.466.75.926.722.053 0 .107.006.16 0 .542-.065.908-.608.747-1.119-.187-.596-.915-.808-1.42-.493zm14.647-.452a.763.763 0 0 0-.746.608c-.012.052.002.059.05.058h1.543c.03 0 .07.008.055-.044-.054-.196-.143-.37-.32-.49-.176-.121-.375-.14-.582-.132zm3.379-2.48c.028.012.02.035.02.055l.001.677c0 .043-.013.057-.058.058-.045 0-.059-.015-.058-.058.002-.16 0-.32 0-.48 0-.024.006-.05-.01-.082-.052.121-.119.23-.158.349-.01.028-.018.051-.056.054-.038.003-.055-.013-.07-.046-.04-.094-.084-.188-.128-.281-.008-.019-.012-.041-.04-.052-.016.029-.009.06-.009.088v.445c.001.043-.009.063-.06.063-.038 0-.048-.015-.05-.038l-.002-.025c.001-.217 0-.433.002-.65 0-.028-.02-.076.034-.076l.061-.006c.03-.002.06.004.078.046.051.113.105.225.159.337l.02.04c.059-.129.11-.247.165-.363.024-.05.108-.075.159-.054zm-.834-.001c.043 0 .062.01.061.055 0 .044-.023.05-.06.05-.046-.002-.092.002-.138-.002-.056-.005-.075.014-.074.07l.001.272v.271c0 .044.001.076-.062.075-.047-.001-.055-.022-.055-.048v-.295c0-.087-.005-.174.002-.26.005-.071-.023-.092-.091-.085-.038.005-.078 0-.116.002-.041.002-.062-.007-.062-.054 0-.049.026-.051.064-.051h.53zm-6.945-1.55c1.326 0 2.37.211 3.184.556a4.956 4.956 0 0 1 .452.217c.493.266.883.587 1.188.937l.106.128H68.7l.004-.005-.013.001c.76-.992 2.193-1.702 4.297-1.818l.305-.012.314-.005zm6.658-3.07l.14.009c.282.029.552.135.707.316a.737.737 0 0 1 .046.921l-.09.087c-.342.246-2.449 1.755-2.768 1.943a1.083 1.083 0 0 1-.448.129l-.134.005c-.317-.001-.665-.1-.905-.339-.183-.18-.206-.347-.183-.55.021-.184.136-.333.277-.465l.086-.076 2.491-1.752c.079-.055.17-.087.258-.127.15-.07.335-.102.523-.1zm-13.085-.06l.14.004c.138.012.27.043.384.095.087.04.178.072.257.127l2.49 1.752c.178.15.339.32.364.542.023.202 0 .37-.182.55-.207.204-.492.306-.769.332l-.137.006c-.227.001-.437-.048-.582-.133-.319-.188-2.425-1.698-2.768-1.944l-.09-.086a.736.736 0 0 1 .046-.921c.181-.212.519-.322.847-.325zM73.75 18c.63 0 1.132.28 1.132.885v.04l-.013 1.57a.69.69 0 0 1-.024.184c-.116.4-.5.63-.973.665l-.131.005c-.549 0-1.006-.205-1.115-.657l-.015-.091-.004-.093.001-1.584.008-.116V18.8l.002-.003v-.007l.011-.058a.864.864 0 0 1 .112-.275.809.809 0 0 1 .072-.095l.015-.017.015-.017a.87.87 0 0 1 .216-.164c.017-.01.034-.019.052-.027l.047-.023.058-.023.047-.017.06-.018.056-.014.085-.018.028-.005c.083-.012.17-.019.258-.019zm-1.133.791v.007-.007zm.001-.002v.002-.002zM23.74 37.976l-.011-.02.008.02c.005.004.004.003.003 0z"/></g></symbol><symbol id="logo-GoFundMe" viewBox="0 0 105 36"><g fill="none" class="nc-icon-wrapper" stroke="none"><path clip-rule="evenodd" d="M4.856 19.418c1.283 0 2.733.54 3.5 1.607h.097v-1.33h3.477V30.64C11.93 34.274 8.932 36 5.959 36c-2.89 0-5.707-1.643-5.731-4.724H3.68c.084 1.379 1.079 2.014 2.23 2.014 1.15 0 2.326-.707 2.326-2.458v-1.678H8.14c-.78.935-2.086 1.439-3.285 1.439C1.942 30.593 0 27.81 0 24.97s1.942-5.552 4.856-5.552zm34.482.264v6.199c0 .923.719 1.666 1.618 1.666.9 0 1.619-.743 1.619-1.666v-6.199h3.692v6.139c0 3.141-2.158 5.06-5.311 5.06-3.093 0-5.311-1.847-5.311-5.06v-6.139zm59.827-.288c3.213 0 5.767 2.398 5.767 5.755 0 .313-.029.578-.053.75l-.007.054h-7.71c.132 1.402 1.008 2.194 2.075 2.194.595 0 1.201-.24 1.724-.815l.074-.084h3.561c-.923 2.47-3.177 3.62-5.431 3.62-2.89 0-5.767-1.906-5.767-5.719 0-3.357 2.554-5.755 5.767-5.755zm-79.646-.096c3.345 0 6.079 2.362 6.079 5.767 0 3.406-2.734 5.767-6.079 5.767-3.333 0-6.03-2.338-6.03-5.767 0-3.429 2.697-5.767 6.03-5.767zm53.137-6.234v17.528H69.18v-1.45h-.096c-.947 1.067-2.266 1.666-3.597 1.666-2.997 0-4.987-2.733-4.987-5.695s1.99-5.683 4.987-5.683c1.151 0 2.53.432 3.382 1.463h.095v-7.83zm-40.332-.312c.683 0 1.39.084 2.002.228v2.985a2.777 2.777 0 0 0-.731-.108c-.995 0-1.859.408-1.859 1.727v2.11h2.254v2.986h-2.254v7.912h-3.693V22.68h-1.606v-2.986h1.606v-2.877c0-2.722 1.93-4.065 4.28-4.065zm22.684 6.642c2.038 0 3.932 1.44 3.932 4.245v6.953h-3.692v-6.186c0-1.091-.732-1.822-1.655-1.822s-1.655.755-1.655 1.822v6.187h-3.692V19.694h3.477v1.367h.095c.828-1.127 2.147-1.667 3.19-1.667zm33.019 0c1.954 0 3.813 1.463 3.813 4.209v6.99h-3.693v-6.319c0-1.02-.672-1.69-1.511-1.69-.851 0-1.523.683-1.523 1.69v6.318h-3.692v-6.318c0-1.02-.672-1.69-1.511-1.69-.851 0-1.523.683-1.523 1.69v6.318h-3.693V19.694h3.477v1.367h.096c.732-1.103 1.967-1.654 3.141-1.654 1.14 0 2.327.599 3.046 1.882h.096c.911-1.307 2.218-1.895 3.477-1.895zm-21.473 3.273a2.461 2.461 0 0 0-2.458 2.458c0 1.355 1.103 2.47 2.458 2.47s2.457-1.115 2.457-2.47a2.461 2.461 0 0 0-2.457-2.458zm-47.01-.083c-1.332 0-2.41 1.102-2.41 2.481s1.078 2.482 2.41 2.482 2.409-1.103 2.409-2.482-1.08-2.481-2.41-2.481zm-13.597.083c-1.295 0-2.35 1.043-2.35 2.338s1.055 2.35 2.35 2.35 2.338-1.055 2.338-2.35-1.043-2.338-2.338-2.338zm93.242-.563c-.971 0-1.799.623-2.074 1.87h4.088c-.228-1.223-1.043-1.87-2.014-1.87zm3.93-6.085l.681 2.001.676-2.001h.456v2.367h-.307V16.99l.004-.24c.002-.112.003-.232.003-.36l-.676 1.997h-.318l-.682-1.997v.073c0 .058.002.146.005.265.003.119.005.206.005.262v1.397h-.307V16.02zm-.746 0v.282h-.798v2.085h-.324v-2.085h-.798v-.282zM52.466 10.38a11.21 11.21 0 0 1 9.713 5.609H42.753a11.21 11.21 0 0 1 9.713-5.609zm11.157-5.378c.72-.72 1.897-.72 2.616 0 .72.72.72 1.897 0 2.616l-2.788 2.788c-.72.72-1.897.72-2.616 0l-.064-.066a1.856 1.856 0 0 1 .064-2.55zM38.77 4.94a1.855 1.855 0 0 1 2.55.063l2.788 2.788c.719.72.719 1.897 0 2.616-.72.72-1.897.72-2.616 0l-2.789-2.788a1.856 1.856 0 0 1 0-2.616zM52.443 0l.08.002c.98.042 1.77.857 1.77 1.848v3.943c0 1.017-.833 1.85-1.85 1.85a1.855 1.855 0 0 1-1.85-1.85V1.85c0-1.017.832-1.85 1.85-1.85z" fill="#02a95c" fill-rule="evenodd"></path></g></symbol></svg>
